<svg xmlns="http://www.w3.org/2000/svg" viewBox="0 0 30 16" fill="#1a1a1a">
    <polygon points="6 8 4 8 4 4 12 4 12 6 6 6 6 8"/>
    <rect x="6" y="8" width="6" height="2"/>
    <rect x="24" y="4" width="2" height="2"/>
    <rect x="0" y="2" width="2" height="12"/>
    <rect x="28" y="2" width="2" height="12"/>
    <rect x="2" y="0" width="26" height="2"/>
    <rect x="2" y="14" width="26" height="2"/>
    <rect x="4" y="10" width="2" height="2"/>
    <polygon points="16 10 16 12 22 12 22 4 20 4 20 10 16 10"/>
    <rect x="14" y="4" width="2" height="6"/>
    <rect x="24" y="8" width="2" height="4"/>
</svg>