<svg xmlns="http://www.w3.org/2000/svg" viewBox="0 0 24 24">
    <rect x="12" y="10" width="8" height="2"/>
    <rect x="12" y="15" width="5" height="2"/>
    <rect x="20" y="12" width="2" height="8"/>
    <rect x="10" y="12" width="2" height="3"/>
    <rect x="4" y="4" width="2" height="2"/>
    <rect x="4" y="10" width="2" height="2"/>
    <rect x="2" y="6" width="2" height="4"/>
    <rect x="8" y="2" width="2" height="2"/>
    <rect x="8" y="10" width="2" height="2"/>
    <rect x="10" y="4" width="2" height="6"/>
    <rect x="6" y="4" width="2" height="6"/>
    <rect x="12" y="2" width="2" height="2"/>
    <rect x="14" y="4" width="2" height="6"/>
    <rect x="16" y="2" width="2" height="2"/>
    <rect x="18" y="4" width="2" height="6"/>
    <rect x="4" y="18" width="2" height="2"/>
    <rect x="6" y="20" width="14" height="2"/>
    <rect x="2" y="12" width="2" height="6"/>
</svg>